<svg width="20" height="20" viewBox="0 0 20 20" fill="none" xmlns="http://www.w3.org/2000/svg">
<path d="M7.34147 1.25C7.07218 1.24979 6.81003 1.33656 6.59403 1.49737C6.37803 1.65819 6.21974 1.88446 6.14272 2.1425L3.78897 10.045C3.74731 10.1849 3.73891 10.3327 3.76444 10.4764C3.78997 10.6202 3.84872 10.756 3.93601 10.873C4.0233 10.99 4.13671 11.0851 4.26722 11.1505C4.39773 11.216 4.54172 11.25 4.68772 11.25H6.66647L5.06647 16.7362C4.58647 18.3812 6.72147 19.4863 7.78897 18.1463L16.0477 7.77125C16.1576 7.63314 16.2263 7.4668 16.2459 7.29138C16.2654 7.11596 16.2351 6.93858 16.1583 6.77965C16.0815 6.62072 15.9614 6.4867 15.8118 6.393C15.6622 6.2993 15.4892 6.24973 15.3127 6.25H12.7752L14.0177 2.93875C14.0886 2.74977 14.1126 2.54645 14.0878 2.34617C14.0629 2.14589 13.99 1.9546 13.8751 1.78865C13.7603 1.62269 13.6069 1.48702 13.4282 1.39322C13.2495 1.29942 13.0508 1.25028 12.849 1.25H7.34147Z" fill="white"/>
</svg>
