<svg width="20" height="20" viewBox="0 0 20 20" fill="none" xmlns="http://www.w3.org/2000/svg">
<path d="M11.8577 12.5649L17.1457 17.8539C17.2395 17.9478 17.3669 18.0005 17.4997 18.0005C17.6324 18.0005 17.7598 17.9478 17.8537 17.8539C17.9475 17.76 18.0003 17.6327 18.0003 17.4999C18.0003 17.3671 17.9475 17.2398 17.8537 17.1459L2.85366 2.1459C2.80717 2.09941 2.75198 2.06254 2.69124 2.03738C2.6305 2.01222 2.5654 1.99927 2.49966 1.99927C2.43391 1.99927 2.36881 2.01222 2.30807 2.03738C2.24733 2.06254 2.19214 2.09941 2.14565 2.1459C2.09917 2.19239 2.06229 2.24758 2.03713 2.30832C2.01197 2.36906 1.99902 2.43416 1.99902 2.4999C1.99902 2.56564 2.01197 2.63074 2.03713 2.69148C2.06229 2.75222 2.09917 2.80741 2.14565 2.8539L5.27265 5.9799L3.93966 10.6439C3.89445 10.802 3.88656 10.9683 3.91661 11.13C3.94665 11.2916 4.0138 11.444 4.11278 11.5753C4.21176 11.7066 4.33985 11.813 4.48698 11.8864C4.63412 11.9597 4.79626 11.9979 4.96065 11.9979H6.22966L5.05965 16.6779C4.79565 17.7329 6.09966 18.4549 6.85466 17.6729L11.8587 12.5649H11.8577ZM15.5307 8.8149L13.2567 11.1359L5.90066 3.7799L6.18966 2.7699C6.31966 2.3149 6.73665 1.9999 7.20965 1.9999H12.4597C13.1837 1.9999 13.6957 2.7099 13.4667 3.3979L13.4647 3.4059L12.2037 6.9999H14.7677C15.7137 6.9999 16.1747 8.1439 15.5337 8.8109L15.5307 8.8149Z" fill="white"/>
</svg>
