<svg width="560" height="560" viewBox="0 0 560 560" fill="none" xmlns="http://www.w3.org/2000/svg">
<path d="M430.5 536H461.333C481.136 536 500.128 528.133 514.131 514.131C528.133 500.128 536 481.136 536 461.333V431M536 129V98.6667C536 78.8638 528.133 59.8721 514.131 45.8694C500.128 31.8666 481.136 24 461.333 24H430.5M126.5 536H98.6667C78.8638 536 59.8721 528.133 45.8694 514.131C31.8666 500.128 24 481.136 24 461.333V431M24 129V98.6667C24 78.8638 31.8666 59.8721 45.8694 45.8694C59.8721 31.8666 78.8638 24 98.6667 24H126.5" stroke="white" stroke-width="4" stroke-linecap="round" stroke-linejoin="round"/>
</svg>
