<svg width="256" height="256" viewBox="0 0 256 256" fill="none" xmlns="http://www.w3.org/2000/svg">
<g clip-path="url(#clip0_624_9269)">
<mask id="mask0_624_9269" style="mask-type:luminance" maskUnits="userSpaceOnUse" x="0" y="0" width="256" height="256">
<path d="M0.249512 0.249512H255.75V255.75H0.249512V0.249512Z" fill="white"/>
</mask>
<g mask="url(#mask0_624_9269)">
<path fill-rule="evenodd" clip-rule="evenodd" d="M27.1969 223.823C27.1969 226.585 29.4355 228.823 32.1969 228.823H84.7889C92.2254 228.823 98.2626 234.86 98.2626 242.297C98.2626 249.733 92.2254 255.77 84.7889 255.77H13.7232C6.28173 255.77 0.249512 249.738 0.249512 242.297V171.211C0.249512 163.775 6.28672 157.737 13.7232 157.737C21.1597 157.737 27.1969 163.775 27.1969 171.211V223.823ZM223.803 228.803C226.565 228.803 228.803 226.565 228.803 223.803V171.211C228.803 163.775 234.84 157.737 242.277 157.737C249.713 157.737 255.75 163.775 255.75 171.211V242.277C255.75 249.718 249.718 255.75 242.277 255.75H171.191C163.755 255.75 157.717 249.713 157.717 242.277C157.717 234.84 163.755 228.803 171.191 228.803H223.803ZM0.249512 128C0.249909 124.427 1.66958 121 4.1963 118.473C6.72302 115.946 10.1499 114.527 13.7232 114.526H242.277C245.85 114.527 249.277 115.946 251.804 118.473C254.33 121 255.75 124.427 255.75 128C255.75 131.573 254.33 135 251.804 137.527C249.277 140.054 245.85 141.473 242.277 141.474H13.7232C10.1499 141.473 6.72302 140.054 4.1963 137.527C1.66958 135 0.249909 131.573 0.249512 128ZM228.803 32.1969C228.803 29.4355 226.565 27.1969 223.803 27.1969H171.211C163.775 27.1969 157.737 21.1597 157.737 13.7232C157.737 6.28672 163.775 0.249512 171.211 0.249512H242.277C249.718 0.249512 255.75 6.28173 255.75 13.7232V84.8089C255.75 92.2453 249.713 98.2825 242.277 98.2825C234.84 98.2825 228.803 92.2453 228.803 84.8089V32.1969ZM32.1969 27.1969C29.4355 27.1969 27.1969 29.4355 27.1969 32.1969V84.7889C27.1969 92.2254 21.1597 98.2626 13.7232 98.2626C6.28672 98.2626 0.249512 92.2254 0.249512 84.7889V13.7232C0.249512 6.28173 6.28173 0.249512 13.7232 0.249512H84.8089C92.2453 0.249512 98.2825 6.28672 98.2825 13.7232C98.2825 21.1597 92.2453 27.1969 84.8089 27.1969H32.1969Z" fill="black"/>
</g>
</g>
<defs>
<clipPath id="clip0_624_9269">
<rect width="256" height="256" fill="white"/>
</clipPath>
</defs>
</svg>
