<svg width="64" height="64" viewBox="0 0 64 64" fill="none" xmlns="http://www.w3.org/2000/svg">
<path d="M30.5898 39.8299C30.0602 39.8277 29.5531 39.6155 29.1798 39.2399L26.3498 36.4099C26.164 36.2241 26.0166 36.0035 25.916 35.7607C25.8154 35.5179 25.7637 35.2577 25.7637 34.9949C25.7637 34.7322 25.8154 34.4719 25.916 34.2291C26.0166 33.9864 26.164 33.7658 26.3498 33.5799C26.5356 33.3941 26.7562 33.2467 26.999 33.1462C27.2418 33.0456 27.502 32.9938 27.7648 32.9938C28.0276 32.9938 28.2878 33.0456 28.5306 33.1462C28.7734 33.2467 28.994 33.3941 29.1798 33.5799L30.5898 34.9999L34.8298 30.7599C35.2051 30.3847 35.7141 30.1738 36.2448 30.1738C36.7755 30.1738 37.2845 30.3847 37.6598 30.7599C38.0351 31.1352 38.2459 31.6442 38.2459 32.1749C38.2459 32.7057 38.0351 33.2147 37.6598 33.5899L31.9998 39.2399C31.6264 39.6155 31.1194 39.8277 30.5898 39.8299Z" fill="#666687"/>
<path d="M34 13.09C33.34 13 32.68 13 32 13C31.32 13 30.66 13 30 13.09C24.362 13.6047 19.1394 16.2731 15.4186 20.5401C11.6978 24.8071 9.7652 30.3443 10.0228 35.9999C10.2804 41.6555 12.7084 46.9941 16.8017 50.9052C20.895 54.8164 26.3386 56.9989 32 56.9989C37.6615 56.9989 43.105 54.8164 47.1983 50.9052C51.2916 46.9941 53.7196 41.6555 53.9772 35.9999C54.2348 30.3443 52.3022 24.8071 48.5814 20.5401C44.8606 16.2731 39.638 13.6047 34 13.09ZM32 53C28.44 53 24.9598 51.9443 21.9998 49.9665C19.0397 47.9886 16.7326 45.1774 15.3702 41.8883C14.0078 38.5992 13.6514 34.98 14.3459 31.4884C15.0404 27.9967 16.7548 24.7894 19.2721 22.2721C21.7894 19.7547 24.9967 18.0404 28.4884 17.3459C31.9801 16.6513 35.5993 17.0078 38.8883 18.3702C42.1774 19.7325 44.9886 22.0397 46.9665 24.9997C48.9443 27.9598 50 31.4399 50 35C50 39.7739 48.1036 44.3523 44.7279 47.7279C41.3523 51.1036 36.7739 53 32 53ZM50.76 19C50.4906 18.999 50.2242 18.9435 49.9767 18.837C49.7293 18.7304 49.5059 18.575 49.32 18.38C47.0409 15.9966 44.2933 14.1104 41.25 12.84C40.7751 12.6262 40.4024 12.2355 40.211 11.7511C40.0197 11.2667 40.0249 10.7267 40.2255 10.2461C40.4261 9.76541 40.8063 9.38197 41.2852 9.17728C41.7641 8.9726 42.304 8.96281 42.79 9.15C46.3422 10.6301 49.5495 12.8296 52.21 15.61C52.4836 15.8931 52.6676 16.2506 52.739 16.6378C52.8103 17.025 52.7657 17.4246 52.6109 17.7866C52.4561 18.1485 52.1978 18.4568 51.8686 18.6726C51.5393 18.8885 51.1537 19.0024 50.76 19ZM13.24 19C12.8492 18.9985 12.4673 18.8825 12.1417 18.6664C11.816 18.4503 11.5608 18.1435 11.4077 17.7839C11.2545 17.4243 11.21 17.0278 11.2797 16.6432C11.3494 16.2586 11.5303 15.9029 11.8 15.62C14.4605 12.8396 17.6678 10.6401 21.22 9.16C21.706 8.97281 22.2459 8.98259 22.7249 9.18728C23.2038 9.39197 23.584 9.77541 23.7846 10.2561C23.9852 10.7367 23.9903 11.2767 23.799 11.7611C23.6077 12.2455 23.2349 12.6362 22.76 12.85C19.7168 14.1204 16.9692 16.0066 14.69 18.39C14.5021 18.5844 14.2767 18.7387 14.0275 18.8435C13.7783 18.9484 13.5104 19.0016 13.24 19Z" fill="#666687"/>
<path d="M38 9C38 9.53043 37.7893 10.0391 37.4142 10.4142C37.0391 10.7893 36.5304 11 36 11H34V13.09C33.34 13 32.68 13 32 13C31.32 13 30.66 13 30 13.09V11H28C27.4696 11 26.9609 10.7893 26.5858 10.4142C26.2107 10.0391 26 9.53043 26 9C26 8.46957 26.2107 7.96086 26.5858 7.58579C26.9609 7.21071 27.4696 7 28 7H36C36.5304 7 37.0391 7.21071 37.4142 7.58579C37.7893 7.96086 38 8.46957 38 9Z" fill="#666687"/>
</svg>
